<svg width="30" height="30" viewBox="0 0 30 30" fill="none" xmlns="http://www.w3.org/2000/svg">
<path fill-rule="evenodd" clip-rule="evenodd" d="M15 5C12.2386 5 10 7.23858 10 10C10 12.7614 12.2386 15 15 15C17.7614 15 20 12.7614 20 10C20 7.23858 17.7614 5 15 5ZM8 10C8 6.13401 11.134 3 15 3C18.866 3 22 6.13401 22 10C22 13.866 18.866 17 15 17C11.134 17 8 13.866 8 10Z" fill="#22359A"/>
<path fill-rule="evenodd" clip-rule="evenodd" d="M10.4381 15.8254C11.8868 15.2798 13.4367 15 15 15C16.5633 15 18.1132 15.2798 19.5619 15.8254C21.0107 16.3709 22.3329 17.1727 23.4508 18.189C24.569 19.2055 25.4616 20.4175 26.0727 21.7585C26.6838 23.0999 27 24.5415 27 26C27 26.5523 26.5523 27 26 27C25.4477 27 25 26.5523 25 26C25 24.8321 24.7471 23.6729 24.2527 22.5878C23.7581 21.5023 23.0302 20.5095 22.1055 19.6689C21.1806 18.828 20.0775 18.1566 18.8571 17.6971C17.6367 17.2375 16.3258 17 15 17C13.6742 17 12.3633 17.2375 11.1429 17.6971C9.92249 18.1566 8.81942 18.828 7.8945 19.6689C6.96977 20.5095 6.24189 21.5023 5.74732 22.5878C5.2529 23.6729 5 24.8321 5 26C5 26.5523 4.55228 27 4 27C3.44772 27 3 26.5523 3 26C3 24.5415 3.31615 23.0999 3.92733 21.7585C4.53836 20.4175 5.43099 19.2055 6.54915 18.189C7.66712 17.1727 8.98931 16.3709 10.4381 15.8254Z" fill="#22359A"/>
</svg>
